<svg width="23" height="22" viewBox="0 0 23 22" fill="none" xmlns="http://www.w3.org/2000/svg">
<rect x="0.47168" width="22" height="22" rx="7" fill="white" fill-opacity="0.8"/>
<rect x="0.47168" width="22" height="22" rx="7" fill="url(#paint0_linear_69_2)" fill-opacity="0.8"/>
<path d="M19.8164 16.6807C19.1768 16.9992 18.3373 17 16.6719 17H6.27148C4.59146 17 3.75109 16.9998 3.10938 16.6729C2.98767 16.6108 2.87198 16.5392 2.76074 16.4619L7.59766 11.9316L8.85156 13.1064C9.49226 13.7065 10.3321 14.0068 11.1719 14.0068C11.4927 14.0068 11.8134 13.9626 12.123 13.875C12.6239 13.7333 13.0964 13.4772 13.4922 13.1064L14.7461 11.9316L19.8164 16.6807ZM20.8672 6.19727C20.9712 6.33552 21.0652 6.482 21.1445 6.6377C21.4715 7.27941 21.4717 8.11978 21.4717 9.7998V12.2002C21.4717 13.8802 21.4715 14.7206 21.1445 15.3623C20.9574 15.7295 20.6959 16.0498 20.3818 16.3096L15.2266 11.4814L20.8672 6.19727ZM7.11621 11.4814L2.2627 16.0264C2.08035 15.8276 1.92281 15.6056 1.79883 15.3623C1.47186 14.7206 1.47168 13.8802 1.47168 12.2002V9.7998C1.47168 8.11978 1.47186 7.27941 1.79883 6.6377C1.81453 6.60689 1.83192 6.57704 1.84863 6.54688L7.11621 11.4814ZM16.6719 5C18.3519 5 19.1923 5.00018 19.834 5.32715C20.0608 5.44276 20.2695 5.58723 20.458 5.75391L13.0498 12.6924C12.6608 13.0567 12.181 13.2849 11.6787 13.376C11.3354 13.4382 10.9814 13.4365 10.6387 13.3711C10.146 13.2769 9.67615 13.0503 9.29395 12.6924L2.19629 6.04492C2.44954 5.75019 2.75912 5.50567 3.10938 5.32715C3.75109 5.00018 4.59146 5 6.27148 5H16.6719Z" fill="url(#paint1_linear_69_2)" fill-opacity="0.95"/>
<defs>
<linearGradient id="paint0_linear_69_2" x1="11.4717" y1="0" x2="11.4717" y2="22" gradientUnits="userSpaceOnUse">
<stop stop-color="#1A6AE7"/>
<stop offset="1" stop-color="#20C2F4"/>
</linearGradient>
<linearGradient id="paint1_linear_69_2" x1="11.4717" y1="5" x2="11.4717" y2="17" gradientUnits="userSpaceOnUse">
<stop stop-color="#F7F7F7"/>
<stop offset="1" stop-color="#F9F9F9"/>
</linearGradient>
</defs>
</svg>