<svg width="17" height="17" viewBox="0 0 17 17" fill="none" xmlns="http://www.w3.org/2000/svg">
<path d="M0 3.03486V4.09949L17 4.21416C17 2.72588 15.7935 1.51939 14.3052 1.51939H6.87266C6.25396 1.51939 5.67256 1.2236 5.30828 0.72352C4.97712 0.268899 4.44857 0 3.88613 0H3.03486C1.35875 0 0 1.35875 0 3.03486Z" fill="url(#paint0_linear_77_8291)" fill-opacity="0.8"/>
<path d="M0 5.30289C0 4.691 0 4.38506 0.119081 4.15135C0.223827 3.94578 0.390966 3.77864 0.596542 3.67389C0.830251 3.55481 1.13619 3.55481 1.74808 3.55481H15.2519C15.8638 3.55481 16.1698 3.55481 16.4035 3.67389C16.609 3.77864 16.7762 3.94578 16.8809 4.15135C17 4.38506 17 4.691 17 5.30289V12.1442C17 13.8439 17 14.6937 16.6692 15.3429C16.3783 15.914 15.914 16.3782 15.3429 16.6692C14.6937 17 13.8439 17 12.1442 17H4.85577C3.15609 17 2.30625 17 1.65706 16.6692C1.08602 16.3782 0.621741 15.914 0.33078 15.3429C0 14.6937 0 13.8439 0 12.1442V5.30289Z" fill="url(#paint1_linear_77_8291)" fill-opacity="0.8"/>
<path d="M0.686279 3.55477C0.686279 3.11146 1.04566 2.75208 1.48898 2.75208H15.4891C15.9324 2.75208 16.2917 3.11146 16.2917 3.55477H0.686279Z" fill="white" fill-opacity="0.8"/>
<defs>
<linearGradient id="paint0_linear_77_8291" x1="8.5" y1="0" x2="8.5" y2="4.21416" gradientUnits="userSpaceOnUse">
<stop stop-color="#13B0F8"/>
<stop offset="1" stop-color="#0283EC"/>
</linearGradient>
<linearGradient id="paint1_linear_77_8291" x1="8.5" y1="3.55481" x2="8.5" y2="17" gradientUnits="userSpaceOnUse">
<stop stop-color="#2ABAFB"/>
<stop offset="1" stop-color="#2676F6"/>
</linearGradient>
</defs>
</svg>