<svg width="29" height="26" viewBox="0 0 29 26" fill="none" xmlns="http://www.w3.org/2000/svg">
<rect x="1" y="1" width="25" height="24" rx="12" fill="url(#paint0_linear_69_2)" fill-opacity="0.8"/>
<path d="M6.28798 9.13102C5.45758 6.89717 6.57922 5.73608 7.67243 5.24541C8.16773 5.0231 8.71764 5.26932 9.02803 5.71474L10.5208 7.85686C10.8852 8.37982 10.8264 9.07018 10.5249 9.63179C10.473 9.7286 10.4273 9.82272 10.3872 9.91407C9.99784 10.8017 10.3899 11.7965 10.9921 12.5559C12.5393 14.5073 14.106 15.9034 14.9193 15.9416C15.365 15.9625 15.8763 15.7388 16.2993 15.4906C16.8459 15.1698 17.5397 15.1149 18.067 15.4665L20.262 16.9301C20.7129 17.2307 20.9761 17.7751 20.789 18.2837C20.0095 20.4015 17.7511 20.1225 16.6046 19.6543C10.82 16.9666 7.60888 12.6844 6.28798 9.13102Z" fill="#FEFEFE" fill-opacity="0.9"/>
<defs>
<linearGradient id="paint0_linear_69_2" x1="13.5" y1="1" x2="13.5" y2="25" gradientUnits="userSpaceOnUse">
<stop stop-color="#5CF777"/>
<stop offset="1" stop-color="#0EBC29"/>
</linearGradient>
</defs>
</svg>