<svg width="24" height="23" viewBox="0 0 24 23" fill="none" xmlns="http://www.w3.org/2000/svg">
<rect width="24" height="23" rx="11.5" fill="black" fill-opacity="0.8"/>
<path d="M13.0992 13.7408C13.2231 13.7977 13.3627 13.8107 13.495 13.7777C13.6273 13.7446 13.7444 13.6675 13.827 13.559L14.04 13.28C14.1518 13.131 14.2967 13.01 14.4633 12.9267C14.63 12.8434 14.8137 12.8 15 12.8H16.8C17.1183 12.8 17.4235 12.9264 17.6485 13.1515C17.8736 13.3765 18 13.6817 18 14V15.8C18 16.1183 17.8736 16.4235 17.6485 16.6485C17.4235 16.8736 17.1183 17 16.8 17C13.9357 17 11.1886 15.8621 9.16325 13.8368C7.13785 11.8114 6 9.06434 6 6.2C6 5.88174 6.12643 5.57652 6.35147 5.35147C6.57652 5.12643 6.88174 5 7.2 5H9C9.31826 5 9.62348 5.12643 9.84853 5.35147C10.0736 5.57652 10.2 5.88174 10.2 6.2V8C10.2 8.18629 10.1566 8.37003 10.0733 8.53666C9.99 8.70328 9.86904 8.84822 9.72 8.96L9.4392 9.1706C9.32905 9.25471 9.25141 9.37435 9.21947 9.50921C9.18754 9.64407 9.20327 9.78583 9.264 9.9104C10.084 11.5759 11.4327 12.9229 13.0992 13.7408Z" stroke="white" stroke-opacity="0.8" stroke-width="2" stroke-linecap="round" stroke-linejoin="round"/>
</svg>