<svg width="35" height="41" viewBox="0 0 35 41" fill="none" xmlns="http://www.w3.org/2000/svg">
<path d="M30.4177 30.6944C30.8278 30.6944 30.9693 30.5948 31.1643 30.2482C31.3592 29.9017 31.2654 29.3387 31.258 29.1856C31.2396 28.8486 31.1312 28.4733 31.1164 28.2857C31.1164 28.1708 31.1164 27.4374 31.133 27.1368C31.3794 22.3807 33.3396 21.2491 33.9059 21.1208C34.2671 21.01 34.6545 21.0371 34.9982 21.1974V13.9216V13.8182V11.8881C34.9982 10.837 34.281 9.54455 33.4058 9.0161L19.0888 0.399936C18.2061 -0.132351 16.7663 -0.132351 15.8984 0.394192L1.59612 8.99886C0.722683 9.52541 0.0055458 10.8178 0.00738461 11.8709V13.7512C0.00665305 13.762 0.00665305 13.7729 0.00738461 13.7837V16.5294C0.0901313 16.5773 0.172878 16.627 0.255625 16.6806C0.533285 16.8721 0.807269 16.9774 1.08677 17.1785C1.88322 17.6838 2.62329 18.2798 3.29335 18.9553C3.4239 19.0855 3.8597 19.6561 3.96267 19.7901C4.27916 20.2443 4.63493 20.6673 5.02551 21.0538C5.24129 21.2587 5.47881 21.4373 5.73345 21.5861C6.15454 21.814 6.84961 21.7623 7.2045 21.5995C9.92963 20.3703 11.6397 20.9868 12.4286 21.4808C14.3796 22.7005 15.0305 24.4065 15.2383 26.4782C15.2656 26.7465 15.2742 27.0166 15.264 27.2862C15.264 27.7783 15.2475 28.569 15.7458 28.7011C16.4611 28.8926 16.6339 28.0961 16.7406 27.5676C16.9815 26.371 18.5114 25.5859 19.6312 26.1891C20.4035 26.6045 20.7198 26.8401 21.4829 26.4897C22.4372 26.0512 22.93 24.9349 23.2629 24.3414C23.5917 23.7634 24.0677 23.2916 24.6383 22.9781C26.1277 22.0112 29.8716 22.262 30.0076 26.5586C30.0076 26.7922 30.0076 27.3896 30.0076 27.7534C30.0076 28.1631 30.0205 28.5633 29.9948 28.9864C29.9782 29.2679 29.9304 29.5608 29.9047 29.85C29.8973 29.85 29.7576 30.6905 30.4177 30.6944Z" fill="#E4A663"/>
<path d="M34.9945 21.2052C34.8933 21.1726 34.5991 20.9716 33.9059 21.1286C33.3377 21.2568 31.3794 22.3884 31.133 27.1446C31.1183 27.4375 31.1091 28.1708 31.1164 28.2934C31.1311 28.4848 31.2396 28.8563 31.258 29.1933C31.258 29.3465 31.3702 29.9017 31.1642 30.2559C30.9583 30.6102 30.8277 30.704 30.4177 30.7021C29.7575 30.7021 29.8973 29.8577 29.8973 29.8577C29.923 29.5724 29.9708 29.2833 29.9874 28.9942C30.0131 28.571 30.0003 28.1708 30.0003 27.7611C30.0003 27.3973 30.0003 26.8037 30.0003 26.5663C29.8642 22.2697 26.1204 22.0189 24.6309 22.9858C24.0604 23.2993 23.5843 23.7712 23.2555 24.3491C22.9227 24.9427 22.4299 26.0589 21.4755 26.4974C20.7124 26.8478 20.3961 26.6123 19.6238 26.1968C18.504 25.5937 16.9741 26.3787 16.7332 27.5754C16.6266 28.1038 16.4537 28.8984 15.7384 28.7089C15.2401 28.5768 15.2566 27.786 15.2566 27.2939C15.2668 27.0243 15.2582 26.7542 15.2309 26.4859C15.0231 24.4142 14.3722 22.7082 12.4212 21.4885C11.6323 20.9945 9.92224 20.378 7.19712 21.6072C6.82936 21.77 6.14164 21.8217 5.72607 21.5938C5.47142 21.445 5.23391 21.2664 5.01812 21.0616C4.62754 20.675 4.27178 20.252 3.95529 19.7978C3.85232 19.6638 3.41652 19.0932 3.28596 18.963C2.6159 18.2875 1.87584 17.6916 1.07938 17.1862C0.799884 16.9947 0.52774 16.8722 0.24824 16.6884C0.165493 16.6348 0.0827467 16.585 0 16.5371V29.0918C0 30.1449 0.717138 31.4373 1.59241 31.9639L15.9094 40.58C16.7847 41.1085 18.2171 41.1085 19.0924 40.58L33.4113 31.9754C34.2865 31.4488 35.0018 30.1564 35 29.1033L34.9945 21.2052Z" fill="#5E464D"/>
<path d="M19.3185 19.095C18.3293 19.6904 16.7093 19.6904 15.72 19.095L1.07935 11.0532C1.24484 11.2236 15.9259 20.104 15.9259 20.104C16.8012 20.6325 18.2336 20.6325 19.1089 20.104C19.1089 20.104 33.7698 11.2504 33.9353 11.08L19.3185 19.095Z" fill="white"/>
<path d="M15.6961 1.54709C16.6872 0.957357 18.3054 0.957357 19.2965 1.549L21.071 2.31488C20.9055 2.14447 19.0887 0.919063 19.0887 0.919063C18.2135 0.39252 16.7829 0.390605 15.9076 0.919063C15.9076 0.919063 13.0059 2.69399 12.8423 2.86249L15.6961 1.54709Z" fill="white"/>
</svg>