<svg width="121" height="45" viewBox="0 0 121 45" fill="none" xmlns="http://www.w3.org/2000/svg">
<path d="M112.316 17.4731V23.9248H121V27.4194H112.316V35.3944C112.316 36.2008 112.345 37.0073 112.459 37.7017C112.687 38.889 113.598 40.0539 114.85 40.5019C116.473 41.0844 117.612 40.9724 121 40.8828L120.174 44.7358C119.947 44.8254 119.035 44.803 118.181 44.803C116.188 44.803 108.672 45.3631 107.135 39.2699C106.879 38.217 106.935 37.1417 106.935 35.484V27.4642H103.063L103.12 23.9024H106.935V17.4731H112.316ZM97.5971 23.9024V44.3998H92.2446V23.9024H97.5971ZM97.5971 17.4731V21.1246H92.1877V17.4731H97.5971ZM73.7957 40.3675H87.5185L82.3938 44.3998H68.3293V17.4731H73.7957V40.3675Z" fill="black"/>
<path d="M11.3882 26.8818L16.0014 20.6195L22.8047 17.9434L34.1883 26.9004L36.116 35.5465L34.1647 44.803L22.7764 35.8424L16.0014 32.256L11.3882 26.8818Z" fill="#00E8FF"/>
<path d="M22.7765 35.8423V17.9211L34.1647 8.96045V26.8817L22.7765 35.8423ZM0 35.8423L11.3882 44.8029L13.0256 36.3181L11.3882 26.8817L4.70793 30.2012L0 35.8423Z" fill="#283198"/>
<path d="M11.3882 26.8819V8.96062L22.7765 0V17.9212L11.3882 26.8819ZM34.1647 44.8031V26.8819L45.5529 17.9212V35.8425L34.1647 44.8031ZM0 35.8425V17.9212L11.3882 26.8819L0 35.8425Z" fill="#324FFF"/>
<path d="M11.3882 44.8031V26.8818L22.7764 35.8425L11.3882 44.8031Z" fill="#00FFFF"/>
</svg>