<svg width="233" height="94" viewBox="0 0 233 94" fill="none" xmlns="http://www.w3.org/2000/svg">
<path d="M216.279 36.4995V49.9763H233V57.2762H216.279V73.935C216.279 75.6196 216.334 77.3042 216.553 78.7548C216.991 81.2349 218.746 83.6682 221.158 84.6041C224.283 85.8208 226.476 85.5868 233 85.3996L231.41 93.4482C230.971 93.6354 229.217 93.5886 227.572 93.5886C223.735 93.5886 209.261 94.7585 206.301 82.0304C205.807 79.8311 205.917 77.585 205.917 74.1222V57.3698H198.461L198.571 49.9295H205.917V36.4995H216.279ZM187.935 49.9295V92.7463H177.628V49.9295H187.935ZM187.935 36.4995V44.127H177.519V36.4995H187.935ZM142.103 84.3233H168.527L158.659 92.7463H131.576V36.4995H142.103V84.3233Z" fill="black"/>
<path d="M21.9294 56.1532L30.8128 43.0721L43.9133 37.4819L65.8339 56.1922L69.5458 74.253L65.7883 93.5887L43.8589 74.871L30.8128 67.3795L21.9294 56.1532Z" fill="#00E8FF"/>
<path d="M43.8588 74.871V37.4355L65.7882 18.7178V56.1533L43.8588 74.871ZM0 74.871L21.9294 93.5888L25.0823 75.8649L21.9294 56.1533L9.06569 63.0874L0 74.871Z" fill="#283198"/>
<path d="M21.9294 56.1532V18.7177L43.8588 0V37.4355L21.9294 56.1532ZM65.7882 93.5887V56.1532L87.7177 37.4355V74.871L65.7882 93.5887ZM0 74.871V37.4355L21.9294 56.1532L0 74.871Z" fill="#324FFF"/>
<path d="M21.9294 93.5888V56.1533L43.8589 74.8711L21.9294 93.5888Z" fill="#00FFFF"/>
</svg>