<svg width="47" height="47" viewBox="0 0 47 47" fill="none" xmlns="http://www.w3.org/2000/svg">
<mask id="mask0_99_497" style="mask-type:alpha" maskUnits="userSpaceOnUse" x="0" y="0" width="47" height="47">
<path d="M23.5 47C36.4787 47 47 36.4787 47 23.5C47 10.5213 36.4787 0 23.5 0C10.5213 0 0 10.5213 0 23.5C0 36.4787 10.5213 47 23.5 47Z" fill="white"/>
</mask>
<g mask="url(#mask0_99_497)">
<path d="M23.5 47C36.4787 47 47 36.4787 47 23.5C47 10.5213 36.4787 0 23.5 0C10.5213 0 0 10.5213 0 23.5C0 36.4787 10.5213 47 23.5 47Z" fill="white"/>
<path d="M33.7056 2.10779C30.6145 0.638561 27.1563 -0.183594 23.5061 -0.183594C17.1384 -0.183594 11.355 2.31842 7.08549 6.39299C2.54629 10.7249 41.7398 5.92658 33.7056 2.10779Z" fill="#FCC397"/>
<path d="M42.1167 8.76208C42.1439 8.79604 40.1766 11.4255 34.2638 12.172C22.3292 13.6787 1.83951 13.838 1.8704 13.7701C3.13791 10.985 4.92677 8.48719 7.1123 6.40146C9.68738 7.20546 12.4902 7.40581 15.1414 6.91724C19.519 6.11638 23.4138 3.58694 27.7439 2.55613C29.6659 2.09439 31.7598 1.95952 33.732 2.11618C37.009 3.67374 39.8735 5.95858 42.1167 8.76208Z" fill="#FC9F95"/>
<path d="M46.9929 19.8911C47.008 19.9869 20.0805 22.5181 6.96067 21.7803C2.68611 21.54 0.163454 18.9555 0.192385 18.8144C0.552917 17.056 1.10749 15.3683 1.83274 13.7747C5.6231 11.7 10.0824 10.5027 14.4065 10.5499C19.829 10.6054 25.1487 12.4133 30.5712 12.2785C34.5982 12.1761 38.6572 10.8908 42.079 8.7666C44.6008 11.9181 46.3375 15.7251 46.9929 19.8911Z" fill="#F77C88"/>
<path d="M47.2077 23.4836C47.2077 23.6154 47.2045 23.8782 47.2045 23.8782C47.2045 23.8782 39.7254 25.7646 30.0932 25.6521C16.6019 25.4945 -0.367524 23.3183 -0.367187 23.2785C-0.353857 21.7001 -0.186813 20.1584 0.119705 18.6677C3.35203 20.6621 7.27201 21.6389 11.045 21.2277C14.0452 20.9026 16.895 19.7925 19.6735 18.6111C22.4521 17.4296 25.2148 16.1609 28.1517 15.479C32.4659 14.4799 37.081 14.8288 41.2053 16.4543C43.2117 17.2455 45.2025 18.3831 46.9172 19.7548C47.1084 20.9696 47.2077 22.215 47.2077 23.4836Z" fill="#F25192"/>
<path d="M20.231 31.214C13.0941 32.532 0.846227 31.0119 0.815362 30.9179C0.0479339 28.5809 -0.367188 26.0841 -0.367188 23.4903C-0.367188 23.4218 -0.366898 23.3534 -0.36632 23.285C0.717121 22.4259 1.98265 21.6599 3.21808 21.0646C6.27369 19.5818 9.74095 18.9634 13.1211 19.2964C16.4617 19.6294 19.6519 20.8664 22.7392 22.1985C25.3402 23.3208 27.9244 24.5332 30.6242 25.3709C30.8887 25.453 28.0871 29.7633 20.231 31.214Z" fill="#D34CA3"/>
<path d="M46.379 29.8988C45.8807 30.7405 41.141 33.5757 34.7162 34.0613C26.2094 34.7042 16.1599 32.1328 19.4935 30.8242C24.7419 28.7626 29.2936 25.0596 34.7162 23.5134C38.767 22.3529 43.2574 22.5364 47.234 23.9386C47.2005 25.9997 46.9049 27.9971 46.379 29.8988Z" fill="#9A50A5"/>
<path d="M44.171 35.3552C40.0634 42.4866 10.2725 44.2749 5.92047 39.4779C3.70514 37.036 1.99033 34.1317 0.937988 30.927C4.59645 28.836 8.87906 27.9479 12.9954 28.5109C18.323 29.2404 23.0964 32.2139 28.3527 33.3716C32.5957 34.3072 37.0921 34.0138 41.1768 32.539C43.0233 31.8671 44.8542 30.9668 46.4732 29.8536C45.9353 31.7989 45.1565 33.6441 44.171 35.3552Z" fill="#59569E"/>
<path d="M44.0731 35.2552C39.9742 42.4193 32.2566 47.247 23.4113 47.247C16.4229 47.247 10.1382 44.2334 5.78613 39.4349C6.50835 39.711 7.31612 39.9496 8.05647 40.1582C12.1966 41.3 16.6534 41.2683 20.7697 40.0551C23.4058 39.2781 25.8835 38.0411 28.4721 37.1054C33.4116 35.3242 38.8484 34.697 44.0731 35.2552Z" fill="#39477F"/>
</g>
</svg>