<svg width="144" height="40" viewBox="0 0 144 40" fill="none" xmlns="http://www.w3.org/2000/svg">
<path d="M71.3513 36.6391V11.1226H84.0002C87.5675 11.1226 90.8107 14.3939 90.8111 17.9924V36.6391H86.2705L86.2702 18.9738C86.2702 17.195 84.9729 15.7025 83.027 15.7025H75.8918V39.9105L71.3513 36.6391ZM99.2434 36.6391V11.1226H103.784V36.6391H99.2434ZM99.2434 5.23416H103.784V0L99.2434 3.27135V5.23416ZM116.757 36.6391H112.216V11.1226H137.189C141.081 11.1226 144 14.0668 144 17.9924V36.6391L139.46 39.9105L139.459 18.9738C139.459 17.011 138.162 15.7025 136.216 15.7025H130.379V36.6391H125.838V15.7025H116.757V36.6391Z" fill="black"/>
<path d="M29.0939 0C29.0939 0 26.8818 1.76327 24.6267 3.51459C22.3069 3.44025 17.7569 3.96419 15.2915 4.86857C13.0203 3.41728 11.0248 1.81491 11.0248 1.81491C11.0248 1.81491 9.31949 4.77406 8.24709 6.51062C6.65669 7.36381 5.05988 8.32343 3.63674 9.59309C1.98147 8.93009 0.0626269 8.12179 0 8.09507C2.19207 12.5549 3.66571 17.0206 7.67437 19.7047C14.0564 9.53794 43.7131 10.475 50.2271 19.647C54.4368 17.4323 56.074 12.6672 57.7296 8.26789C57.5481 8.32822 55.2954 9.08892 53.8352 9.65069C52.9633 8.69325 50.9082 7.22121 49.7402 6.51061C48.6323 4.46424 47.0199 1.69968 47.0199 1.69968C47.0199 1.69968 45.11 3.13246 42.8963 4.69571C39.9057 4.13887 36.2884 3.46229 33.2461 3.6298C31.175 1.91276 29.0939 0 29.0939 0Z" fill="#F3D400"/>
<path d="M2.2666 17.5729C2.2666 17.5729 5.37354 25.161 7.53135 30.4338C16.6748 42.6014 40.0236 43.4473 50.2025 30.6694C52.6112 25.1939 55.8609 17.499 55.8609 17.499C53.2495 21.4011 48.9996 24.0948 46.3822 25.5458C44.5223 26.5735 40.2308 27.1948 40.2308 27.1948L28.964 21.3056L17.6326 27.077C17.6326 27.077 13.3981 26.3908 11.4812 25.4869C7.61218 23.4036 5.01001 20.9424 2.2666 17.5729Z" fill="#FFE953"/>
</svg>