<svg width="159" height="109" viewBox="0 0 159 109" fill="none" xmlns="http://www.w3.org/2000/svg">
<path d="M62.3335 4V43.9848" stroke="#3897F0" stroke-opacity="0.9" stroke-width="7" stroke-linecap="round"/>
<path d="M99.3335 53L142.333 4" stroke="#3897F0" stroke-opacity="0.9" stroke-width="7" stroke-linecap="round"/>
<path d="M114.333 76.8726H155.333" stroke="#3897F0" stroke-opacity="0.9" stroke-width="7" stroke-linecap="round"/>
<path d="M35.4667 108.872L26.6 93.939L9.8 90.2058L11.4333 72.9397L0 59.8735L11.4333 46.8072L9.8 29.5411L26.6 25.8079L35.4667 10.875L51.3333 17.6415L67.2 10.875L76.0667 25.8079L92.8667 29.5411L91.2333 46.8072L102.667 59.8735L91.2333 72.9397L92.8667 90.2058L76.0667 93.939L67.2 108.872L51.3333 102.105L35.4667 108.872ZM46.4333 76.4396L72.8 50.0738L66.2667 43.3073L46.4333 63.14L36.4 53.3403L29.8667 59.8735L46.4333 76.4396Z" fill="#3897F0" fill-opacity="0.9"/>
<path d="M75.6367 26.0635L75.7471 26.249L75.958 26.2959L92.3271 29.9336L90.7354 46.7598L90.7148 46.9746L90.8574 47.1367L102.001 59.873L90.8574 72.6104L90.7148 72.7725L90.7354 72.9863L92.3271 89.8125L75.958 93.4512L75.7471 93.498L75.6367 93.6836L66.9932 108.24L51.5293 101.646L51.333 101.562L51.1367 101.646L35.6729 108.24L27.0303 93.6836L26.9199 93.498L26.708 93.4512L10.3389 89.8135L11.9307 72.9863L11.9512 72.7725L11.8096 72.6104L0.664062 59.873L11.8096 47.1367L11.9512 46.9746L11.9307 46.7598L10.3389 29.9326L26.708 26.2959L26.9199 26.249L27.0303 26.0635L35.6729 11.5059L51.1367 18.1016L51.333 18.1846L51.5293 18.1016L66.9932 11.5059L75.6367 26.0635ZM65.9131 42.9541L46.4287 62.4365L36.749 52.9824L36.3955 52.6377L36.0469 52.9863L29.5127 59.5195L29.1592 59.873L29.5127 60.2266L46.0801 76.793L46.4336 77.1465L46.7871 76.793L73.1533 50.4277L73.501 50.0801L73.1602 49.7266L66.626 42.96L66.2725 42.5938L65.9131 42.9541Z" stroke="#3897F0" stroke-opacity="0.9"/>
</svg>