<svg width="50" height="49" viewBox="0 0 50 49" fill="none" xmlns="http://www.w3.org/2000/svg">
<path d="M6.04992 8.21987C4.6875 10.8403 4.6875 14.2706 4.6875 21.1313V24.8062C4.6875 31.6669 4.6875 35.0972 6.04992 37.7176C7.24834 40.0226 9.16059 41.8966 11.5126 43.0711C14.1865 44.4062 17.6868 44.4062 24.6875 44.4062H28.4375C35.4382 44.4062 38.9385 44.4062 41.6124 43.0711C43.9644 41.8966 45.8767 40.0226 47.0751 37.7176C48.4375 35.0972 48.4375 31.6669 48.4375 24.8062V21.1313C48.4375 14.2706 48.4375 10.8403 47.0751 8.21987C45.8767 5.91488 43.9644 4.04087 41.6124 2.86642C38.9385 1.53125 35.4382 1.53125 28.4375 1.53125H24.6875C17.6868 1.53125 14.1865 1.53125 11.5126 2.86642C9.16059 4.04087 7.24834 5.91488 6.04992 8.21987Z" fill="url(#paint0_linear_99_2986)" fill-opacity="0.6"/>
<path d="M5.10191 11.147C4.6875 13.455 4.6875 16.5175 4.6875 21.1314V24.8064C4.6875 31.6671 4.6875 35.0974 6.04992 37.7178C7.24834 40.0228 9.16059 41.8968 11.5126 43.0712C14.1865 44.4064 17.6868 44.4064 24.6875 44.4064H28.4375C35.4382 44.4064 38.9385 44.4064 41.6124 43.0712C43.9644 41.8968 45.8767 40.0228 47.0751 37.7178C48.4375 35.0974 48.4375 31.6671 48.4375 24.8064V21.1314C48.4375 14.2708 48.4375 10.8404 47.0751 8.22003C45.9184 5.99524 44.0966 4.17196 41.8563 2.9917L5.10191 11.147Z" fill="url(#paint1_linear_99_2986)" fill-opacity="0.6"/>
<path d="M47.9849 34.9951C47.784 36.0299 47.4939 36.9119 47.0751 37.7175C45.8767 40.0225 43.9644 41.8965 41.6124 43.0709C39.0185 44.3661 35.6469 44.4049 29.0567 44.406H26.6541V39.5624L47.9849 34.9951Z" fill="url(#paint2_linear_99_2986)" fill-opacity="0.6"/>
<path d="M28.4374 1.53125H24.6874C23.3254 1.53125 22.0959 1.53125 20.9792 1.54108V7.61111L41.8521 2.98939C41.7727 2.94759 41.6927 2.90659 41.6123 2.86642C40.1279 2.12519 38.3887 1.79546 35.9374 1.64878C33.9732 1.53125 31.5516 1.53125 28.4374 1.53125Z" fill="url(#paint3_linear_99_2986)" fill-opacity="0.8"/>
<path d="M48.4375 25.0715C48.4373 29.6738 48.429 32.7074 47.9849 34.995L40.5662 36.5835V25.749L48.4375 23.9551V25.0715Z" fill="url(#paint4_linear_99_2986)" fill-opacity="0.6"/>
<path d="M29.0406 10.0848C28.4547 9.51044 27.66 9.18767 26.8313 9.1875H15.625C14.7962 9.1875 14.0013 9.51016 13.4153 10.0845C12.8292 10.6588 12.5 11.4378 12.5 12.25V23.2321C12.5002 24.0443 12.8295 24.8231 13.4156 25.3973L27.0156 38.7253C27.7258 39.4169 28.6863 39.805 29.6875 39.805C30.6887 39.805 31.6492 39.4169 32.3594 38.7253L42.6406 28.6497C43.3463 27.9537 43.7424 27.0124 43.7424 26.0312C43.7424 25.0501 43.3463 24.1088 42.6406 23.4128L29.0406 10.0848Z" fill="black" fill-opacity="0.8" stroke="white" stroke-opacity="0.8" stroke-width="2" stroke-linecap="round" stroke-linejoin="round"/>
<path d="M21.0938 18.375C21.5252 18.375 21.875 18.0322 21.875 17.6094C21.875 17.1865 21.5252 16.8438 21.0938 16.8438C20.6623 16.8438 20.3125 17.1865 20.3125 17.6094C20.3125 18.0322 20.6623 18.375 21.0938 18.375Z" fill="black" fill-opacity="0.8" stroke="white" stroke-opacity="0.8" stroke-width="2" stroke-linecap="round" stroke-linejoin="round"/>
<defs>
<linearGradient id="paint0_linear_99_2986" x1="4.6875" y1="1.53125" x2="18.8625" y2="11.7576" gradientUnits="userSpaceOnUse">
<stop stop-color="#004DFF"/>
<stop offset="1" stop-color="#004CFF"/>
</linearGradient>
<linearGradient id="paint1_linear_99_2986" x1="6.33499" y1="11.5986" x2="37.5363" y2="37.8605" gradientUnits="userSpaceOnUse">
<stop stop-color="#0B99FF"/>
<stop offset="1" stop-color="#0B99FF"/>
</linearGradient>
<linearGradient id="paint2_linear_99_2986" x1="26.6541" y1="39.7419" x2="48.3967" y2="44.5894" gradientUnits="userSpaceOnUse">
<stop stop-color="#0B99FF"/>
<stop offset="1" stop-color="#0B99FF"/>
</linearGradient>
<linearGradient id="paint3_linear_99_2986" x1="20.9792" y1="4.58094" x2="48.4231" y2="1.40716" gradientUnits="userSpaceOnUse">
<stop stop-color="#0B99FF"/>
<stop offset="1" stop-color="#0B99FF"/>
</linearGradient>
<linearGradient id="paint4_linear_99_2986" x1="40.5662" y1="25.8387" x2="48.2508" y2="35.2302" gradientUnits="userSpaceOnUse">
<stop stop-color="#0B99FF"/>
<stop offset="1" stop-color="#0B99FF"/>
</linearGradient>
</defs>
</svg>