<svg width="15" height="14" viewBox="0 0 15 14" fill="none" xmlns="http://www.w3.org/2000/svg">
<path d="M5.6563 1H2.9922C2.25653 1 1.66016 1.55964 1.66016 2.25V4.75C1.66016 5.44036 2.25653 6 2.9922 6H5.6563C6.39196 6 6.98834 5.44036 6.98834 4.75V2.25C6.98834 1.55964 6.39196 1 5.6563 1Z" stroke="white" stroke-opacity="0.8" stroke-width="2" stroke-linecap="round" stroke-linejoin="round"/>
<path d="M4.32422 6V8.5C4.32422 8.83152 4.46456 9.14946 4.71437 9.38388C4.96417 9.6183 5.30298 9.75 5.65627 9.75H8.32036" stroke="white" stroke-opacity="0.8" stroke-width="2" stroke-linecap="round" stroke-linejoin="round"/>
<path d="M12.3167 7.25H9.6526C8.91693 7.25 8.32056 7.80964 8.32056 8.5V11C8.32056 11.6904 8.91693 12.25 9.6526 12.25H12.3167C13.0524 12.25 13.6487 11.6904 13.6487 11V8.5C13.6487 7.80964 13.0524 7.25 12.3167 7.25Z" stroke="white" stroke-opacity="0.8" stroke-width="2" stroke-linecap="round" stroke-linejoin="round"/>
</svg>