<svg width="21" height="12" viewBox="0 0 21 12" fill="none" xmlns="http://www.w3.org/2000/svg">
<path d="M18.8164 11.6807C18.1768 11.9992 17.3373 12 15.6719 12H5.27148C3.59146 12 2.75109 11.9998 2.10938 11.6729C1.98767 11.6108 1.87198 11.5392 1.76074 11.4619L6.59766 6.93164L7.85156 8.10645C8.49226 8.70653 9.33214 9.00684 10.1719 9.00684C10.4926 9.00682 10.8134 8.96258 11.123 8.875C11.6239 8.73331 12.0964 8.47718 12.4922 8.10645L13.7461 6.93164L18.8164 11.6807ZM19.8672 1.19727C19.9712 1.33552 20.0652 1.482 20.1445 1.6377C20.4715 2.27941 20.4717 3.11978 20.4717 4.7998V7.2002C20.4717 8.88022 20.4715 9.72059 20.1445 10.3623C19.9574 10.7295 19.6959 11.0498 19.3818 11.3096L14.2266 6.48145L19.8672 1.19727ZM6.11621 6.48145L1.2627 11.0264C1.08035 10.8276 0.922807 10.6056 0.798828 10.3623C0.47186 9.72059 0.47168 8.88022 0.47168 7.2002V4.7998C0.47168 3.11978 0.47186 2.27941 0.798828 1.6377C0.814531 1.60689 0.83192 1.57704 0.848633 1.54688L6.11621 6.48145ZM15.6719 0C17.3519 4.91912e-10 18.1923 0.000180667 18.834 0.327148C19.0608 0.44276 19.2695 0.587233 19.458 0.753906L12.0498 7.69238C11.6608 8.05671 11.181 8.28489 10.6787 8.37598C10.3354 8.43818 9.98143 8.43653 9.63867 8.37109C9.14597 8.27694 8.67615 8.0503 8.29395 7.69238L1.19629 1.04492C1.44954 0.750187 1.75912 0.50567 2.10938 0.327148C2.75109 0.000180667 3.59146 4.91912e-10 5.27148 0H15.6719Z" fill="url(#paint0_linear_77_8238)" fill-opacity="0.95"/>
<defs>
<linearGradient id="paint0_linear_77_8238" x1="10.4717" y1="-6.87783e-09" x2="10.4717" y2="12" gradientUnits="userSpaceOnUse">
<stop stop-color="#F7F7F7"/>
<stop offset="1" stop-color="#F9F9F9"/>
</linearGradient>
</defs>
</svg>
