<svg width="15" height="12" viewBox="0 0 15 12" fill="none" xmlns="http://www.w3.org/2000/svg">
<path d="M12.25 10.9167C12.5815 10.9167 12.8995 10.7938 13.1339 10.575C13.3683 10.3562 13.5 10.0594 13.5 9.75V3.91667C13.5 3.60725 13.3683 3.3105 13.1339 3.09171C12.8995 2.87292 12.5815 2.75 12.25 2.75H7.3125C7.10345 2.75191 6.89722 2.70486 6.71269 2.61314C6.52816 2.52142 6.37123 2.38797 6.25625 2.225L5.75 1.525C5.63618 1.36369 5.48123 1.23128 5.29906 1.13965C5.11689 1.04802 4.91319 1.00003 4.70625 1H2.25C1.91848 1 1.60054 1.12292 1.36612 1.34171C1.1317 1.5605 1 1.85725 1 2.16667V9.75C1 10.0594 1.1317 10.3562 1.36612 10.575C1.60054 10.7938 1.91848 10.9167 2.25 10.9167H12.25Z" stroke="white" stroke-opacity="0.8" stroke-width="2" stroke-linecap="round" stroke-linejoin="round"/>
</svg>
