<svg width="14" height="15" viewBox="0 0 14 15" fill="none" xmlns="http://www.w3.org/2000/svg">
<path d="M6 13.33C6.19002 13.4397 6.40558 13.4974 6.625 13.4974C6.84442 13.4974 7.05998 13.4397 7.25 13.33L11.625 10.83C11.8148 10.7204 11.9725 10.5628 12.0822 10.373C12.1919 10.1832 12.2498 9.96792 12.25 9.74872V4.74872C12.2498 4.52951 12.1919 4.31422 12.0822 4.12444C11.9725 3.93467 11.8148 3.77707 11.625 3.66747L7.25 1.16747C7.05998 1.05776 6.84442 1 6.625 1C6.40558 1 6.19002 1.05776 6 1.16747L1.625 3.66747C1.43516 3.77707 1.27749 3.93467 1.16779 4.12444C1.05809 4.31422 1.00022 4.52951 1 4.74872V9.74872C1.00022 9.96792 1.05809 10.1832 1.16779 10.373C1.27749 10.5628 1.43516 10.7204 1.625 10.83L6 13.33Z" stroke="white" stroke-opacity="0.8" stroke-width="2" stroke-linecap="round" stroke-linejoin="round"/>
<path d="M6.625 13.4987V7.24872" stroke="white" stroke-opacity="0.8" stroke-width="2" stroke-linecap="round" stroke-linejoin="round"/>
<path d="M1.18115 4.12372L6.6249 7.24872L12.0687 4.12372" stroke="white" stroke-opacity="0.8" stroke-width="2" stroke-linecap="round" stroke-linejoin="round"/>
<path d="M3.8125 2.41747L9.4375 5.63622" stroke="white" stroke-opacity="0.8" stroke-width="2" stroke-linecap="round" stroke-linejoin="round"/>
</svg>