<svg width="48" height="48" viewBox="0 0 32 32" fill="none" xmlns="http://www.w3.org/2000/svg">
<path d="M3.87195 5.36808C3 7.07937 3 9.31958 3 13.8V16.2C3 20.6804 3 22.9206 3.87195 24.6319C4.63893 26.1372 5.86278 27.3611 7.36808 28.1281C9.07937 29 11.3196 29 15.8 29H18.2C22.6804 29 24.9206 29 26.6319 28.1281C28.1372 27.3611 29.3611 26.1372 30.1281 24.6319C31 22.9206 31 20.6804 31 16.2V13.8C31 9.31958 31 7.07937 30.1281 5.36808C29.3611 3.86278 28.1372 2.63893 26.6319 1.87195C24.9206 1 22.6804 1 18.2 1H15.8C11.3196 1 9.07937 1 7.36808 1.87195C5.86278 2.63893 4.63893 3.86278 3.87195 5.36808Z" fill="url(#paint0_linear_99_2978)" fill-opacity="0.6"/>
<path d="M3.26522 7.27953C3 8.78681 3 10.7868 3 13.8V16.2C3 20.6804 3 22.9206 3.87195 24.6319C4.63893 26.1372 5.86278 27.361 7.36808 28.128C9.07937 29 11.3196 29 15.8 29H18.2C22.6804 29 24.9206 29 26.6319 28.128C28.1372 27.361 29.3611 26.1372 30.1281 24.6319C31 22.9206 31 20.6804 31 16.2V13.8C31 9.31954 31 7.07933 30.1281 5.36803C29.3878 3.91511 28.2218 2.72439 26.788 1.95361L3.26522 7.27953Z" fill="url(#paint1_linear_99_2978)" fill-opacity="0.6"/>
<path d="M30.7103 22.854C30.5818 23.5297 30.3961 24.1058 30.1281 24.6319C29.3611 26.1372 28.1372 27.361 26.6319 28.128C24.9719 28.9738 22.814 28.9992 18.5963 28.9999H17.0586V25.8367L30.7103 22.854Z" fill="url(#paint2_linear_99_2978)" fill-opacity="0.6"/>
<path d="M18.2 1H15.8C14.9283 1 14.1414 1 13.4268 1.00642V4.97052L26.7854 1.95225C26.7346 1.92495 26.6834 1.89818 26.6319 1.87195C25.6819 1.38788 24.5688 1.17255 23 1.07676C21.7429 1 20.1931 1 18.2 1Z" fill="url(#paint3_linear_99_2978)" fill-opacity="0.8"/>
<path d="M31.0001 16.3734C31 19.3789 30.9946 21.3601 30.7104 22.854L25.9624 23.8914V16.8158L31.0001 15.6443V16.3734Z" fill="url(#paint4_linear_99_2978)" fill-opacity="0.6"/>
<path d="M18.586 6.586C18.211 6.2109 17.7024 6.00011 17.172 6H10C9.46957 6 8.96086 6.21071 8.58579 6.58579C8.21071 6.96086 8 7.46957 8 8V15.172C8.00011 15.7024 8.2109 16.211 8.586 16.586L17.29 25.29C17.7445 25.7416 18.3592 25.9951 19 25.9951C19.6408 25.9951 20.2555 25.7416 20.71 25.29L27.29 18.71C27.7416 18.2555 27.9951 17.6408 27.9951 17C27.9951 16.3592 27.7416 15.7445 27.29 15.29L18.586 6.586Z" fill="black" fill-opacity="0.7" stroke="white" stroke-opacity="0.7" stroke-width="2" stroke-linecap="round" stroke-linejoin="round"/>
<path d="M13.5 12C13.7761 12 14 11.7761 14 11.5C14 11.2239 13.7761 11 13.5 11C13.2239 11 13 11.2239 13 11.5C13 11.7761 13.2239 12 13.5 12Z" fill="black" fill-opacity="0.8" stroke="white" stroke-opacity="0.8" stroke-width="2" stroke-linecap="round" stroke-linejoin="round"/>
<defs>
<linearGradient id="paint0_linear_99_2978" x1="3" y1="1" x2="12.1967" y2="7.50209" gradientUnits="userSpaceOnUse">
<stop/>
<stop offset="1"/>
</linearGradient>
<linearGradient id="paint1_linear_99_2978" x1="4.05439" y1="7.57442" x2="24.3566" y2="24.3209" gradientUnits="userSpaceOnUse">
<stop/>
<stop offset="1"/>
</linearGradient>
<linearGradient id="paint2_linear_99_2978" x1="17.0586" y1="25.954" x2="31" y2="29" gradientUnits="userSpaceOnUse">
<stop/>
<stop offset="1"/>
</linearGradient>
<linearGradient id="paint3_linear_99_2978" x1="13.4268" y1="2.99163" x2="31" y2="1" gradientUnits="userSpaceOnUse">
<stop/>
<stop offset="1"/>
</linearGradient>
<linearGradient id="paint4_linear_99_2978" x1="25.9624" y1="16.8744" x2="31.0001" y2="22.9079" gradientUnits="userSpaceOnUse">
<stop/>
<stop offset="1"/>
</linearGradient>
</defs>
</svg>